<mxfile host="app.diagrams.net" agent="Mozilla/5.0 (Windows NT 10.0; Win64; x64) AppleWebKit/537.36 (KHTML, like Gecko) Chrome/128.0.0.0 Safari/537.36" version="24.7.16">
  <diagram name="Page-1" id="2cc2dc42-3aac-f2a9-1cec-7a8b7cbee084">
    <mxGraphModel dx="3829" dy="2324" grid="1" gridSize="10" guides="1" tooltips="1" connect="1" arrows="1" fold="1" page="1" pageScale="1" pageWidth="1920" pageHeight="1200" background="none" math="0" shadow="0">
      <root>
        <mxCell id="0" />
        <mxCell id="1" parent="0" />
        <mxCell id="7026571954dc6520-1" value="" style="strokeWidth=1;shadow=0;dashed=0;align=center;html=1;shape=mxgraph.mockup.containers.browserWindow;rSize=0;strokeColor=#666666;mainText=,;recursiveResize=0;rounded=0;labelBackgroundColor=none;fontFamily=Verdana;fontSize=12;aspect=fixed;" parent="1" vertex="1">
          <mxGeometry x="-160" y="-20" width="1920" height="1080" as="geometry" />
        </mxCell>
        <mxCell id="7026571954dc6520-2" value="Pokemems" style="strokeWidth=1;shadow=0;dashed=0;align=center;html=1;shape=mxgraph.mockup.containers.anchor;fontSize=17;fontColor=#666666;align=left;" parent="7026571954dc6520-1" vertex="1">
          <mxGeometry x="60" y="12" width="110" height="26" as="geometry" />
        </mxCell>
        <mxCell id="7026571954dc6520-3" value="https://www..." style="strokeWidth=1;shadow=0;dashed=0;align=center;html=1;shape=mxgraph.mockup.containers.anchor;rSize=0;fontSize=17;fontColor=#666666;align=left;" parent="7026571954dc6520-1" vertex="1">
          <mxGeometry x="130" y="60" width="250" height="26" as="geometry" />
        </mxCell>
        <mxCell id="DGHIwi53QcnOYbEK0RTo-2" value="" style="rounded=0;whiteSpace=wrap;html=1;strokeColor=none;fillColor=#3d348b;" vertex="1" parent="7026571954dc6520-1">
          <mxGeometry y="110" width="1920" height="970" as="geometry" />
        </mxCell>
        <mxCell id="DGHIwi53QcnOYbEK0RTo-1" value="&lt;font color=&quot;#f7b801&quot;&gt;Pokemems&lt;/font&gt;" style="text;html=1;align=left;verticalAlign=middle;whiteSpace=wrap;rounded=0;fontFamily=Press Start 2P;fontSource=https%3A%2F%2Ffonts.googleapis.com%2Fcss%3Ffamily%3DPress%2BStart%2B2P;fontSize=36;" vertex="1" parent="7026571954dc6520-1">
          <mxGeometry x="50" y="140" width="350" height="70" as="geometry" />
        </mxCell>
        <mxCell id="DGHIwi53QcnOYbEK0RTo-4" value="&lt;font color=&quot;#f7b801&quot; style=&quot;font-size: 16px;&quot; data-font-src=&quot;https://fonts.googleapis.com/css?family=DM+Sans&quot; face=&quot;DM Sans&quot;&gt;Earn points by clicking on a Pokemon... but don&#39;t click on any of them more than once!&lt;/font&gt;" style="text;html=1;align=left;verticalAlign=middle;whiteSpace=wrap;rounded=0;" vertex="1" parent="7026571954dc6520-1">
          <mxGeometry x="50" y="210" width="660" height="30" as="geometry" />
        </mxCell>
        <mxCell id="DGHIwi53QcnOYbEK0RTo-7" value="" style="group" vertex="1" connectable="0" parent="7026571954dc6520-1">
          <mxGeometry x="1560" y="150" width="270" height="60" as="geometry" />
        </mxCell>
        <mxCell id="DGHIwi53QcnOYbEK0RTo-5" value="&lt;font style=&quot;font-size: 16px;&quot; color=&quot;#f7b801&quot;&gt;score: 0&lt;/font&gt;" style="text;html=1;align=right;verticalAlign=middle;whiteSpace=wrap;rounded=0;fontFamily=Press Start 2P;fontSource=https%3A%2F%2Ffonts.googleapis.com%2Fcss%3Ffamily%3DPress%2BStart%2B2P;fontSize=16;" vertex="1" parent="DGHIwi53QcnOYbEK0RTo-7">
          <mxGeometry width="270" height="30" as="geometry" />
        </mxCell>
        <mxCell id="DGHIwi53QcnOYbEK0RTo-6" value="&lt;font color=&quot;#f7b801&quot; style=&quot;font-size: 16px;&quot;&gt;high score: 6&lt;/font&gt;" style="text;html=1;align=right;verticalAlign=middle;whiteSpace=wrap;rounded=0;fontFamily=Press Start 2P;fontSource=https%3A%2F%2Ffonts.googleapis.com%2Fcss%3Ffamily%3DPress%2BStart%2B2P;fontSize=16;" vertex="1" parent="DGHIwi53QcnOYbEK0RTo-7">
          <mxGeometry y="30" width="270" height="30" as="geometry" />
        </mxCell>
        <mxCell id="DGHIwi53QcnOYbEK0RTo-8" value="" style="rounded=1;whiteSpace=wrap;html=1;arcSize=12;strokeColor=none;shadow=1;fillColor=#F7B801;" vertex="1" parent="7026571954dc6520-1">
          <mxGeometry x="50" y="300" width="300" height="340" as="geometry" />
        </mxCell>
        <mxCell id="DGHIwi53QcnOYbEK0RTo-11" value="" style="rounded=1;whiteSpace=wrap;html=1;arcSize=12;strokeColor=none;shadow=1;fillColor=#7678ED;" vertex="1" parent="7026571954dc6520-1">
          <mxGeometry x="420" y="300" width="300" height="340" as="geometry" />
        </mxCell>
        <mxCell id="DGHIwi53QcnOYbEK0RTo-12" value="" style="rounded=1;whiteSpace=wrap;html=1;arcSize=12;strokeColor=none;shadow=1;fillColor=#7678ED;" vertex="1" parent="7026571954dc6520-1">
          <mxGeometry x="790" y="300" width="300" height="340" as="geometry" />
        </mxCell>
        <mxCell id="DGHIwi53QcnOYbEK0RTo-13" value="" style="rounded=1;whiteSpace=wrap;html=1;arcSize=12;strokeColor=none;shadow=1;fillColor=#7678ED;" vertex="1" parent="7026571954dc6520-1">
          <mxGeometry x="1160" y="300" width="300" height="340" as="geometry" />
        </mxCell>
        <mxCell id="DGHIwi53QcnOYbEK0RTo-14" value="" style="rounded=1;whiteSpace=wrap;html=1;arcSize=12;strokeColor=none;shadow=1;fillColor=#7678ED;" vertex="1" parent="7026571954dc6520-1">
          <mxGeometry x="1530" y="300" width="300" height="340" as="geometry" />
        </mxCell>
        <mxCell id="DGHIwi53QcnOYbEK0RTo-15" value="" style="rounded=1;whiteSpace=wrap;html=1;arcSize=12;strokeColor=none;shadow=1;fillColor=#7678ED;" vertex="1" parent="7026571954dc6520-1">
          <mxGeometry x="50" y="680" width="300" height="340" as="geometry" />
        </mxCell>
        <mxCell id="DGHIwi53QcnOYbEK0RTo-16" value="" style="rounded=1;whiteSpace=wrap;html=1;arcSize=12;strokeColor=none;shadow=1;fillColor=#7678ED;" vertex="1" parent="7026571954dc6520-1">
          <mxGeometry x="420" y="680" width="300" height="340" as="geometry" />
        </mxCell>
        <mxCell id="DGHIwi53QcnOYbEK0RTo-17" value="" style="rounded=1;whiteSpace=wrap;html=1;arcSize=12;strokeColor=none;shadow=1;fillColor=#7678ED;" vertex="1" parent="7026571954dc6520-1">
          <mxGeometry x="790" y="680" width="300" height="340" as="geometry" />
        </mxCell>
        <mxCell id="DGHIwi53QcnOYbEK0RTo-18" value="" style="rounded=1;whiteSpace=wrap;html=1;arcSize=12;strokeColor=none;shadow=1;fillColor=#7678ED;" vertex="1" parent="7026571954dc6520-1">
          <mxGeometry x="1160" y="680" width="300" height="340" as="geometry" />
        </mxCell>
        <mxCell id="DGHIwi53QcnOYbEK0RTo-19" value="" style="rounded=1;whiteSpace=wrap;html=1;arcSize=12;strokeColor=none;shadow=1;fillColor=#7678ED;" vertex="1" parent="7026571954dc6520-1">
          <mxGeometry x="1530" y="680" width="300" height="340" as="geometry" />
        </mxCell>
        <mxCell id="DGHIwi53QcnOYbEK0RTo-25" value="" style="verticalLabelPosition=bottom;shadow=0;dashed=0;align=center;html=1;verticalAlign=top;strokeWidth=1;shape=mxgraph.mockup.graphics.simpleIcon;strokeColor=#999999;" vertex="1" parent="7026571954dc6520-1">
          <mxGeometry x="70" y="320" width="260" height="250" as="geometry" />
        </mxCell>
        <mxCell id="DGHIwi53QcnOYbEK0RTo-36" value="" style="verticalLabelPosition=bottom;shadow=0;dashed=0;align=center;html=1;verticalAlign=top;strokeWidth=1;shape=mxgraph.mockup.graphics.simpleIcon;strokeColor=#999999;" vertex="1" parent="7026571954dc6520-1">
          <mxGeometry x="440" y="320" width="260" height="250" as="geometry" />
        </mxCell>
        <mxCell id="DGHIwi53QcnOYbEK0RTo-37" value="" style="verticalLabelPosition=bottom;shadow=0;dashed=0;align=center;html=1;verticalAlign=top;strokeWidth=1;shape=mxgraph.mockup.graphics.simpleIcon;strokeColor=#999999;" vertex="1" parent="7026571954dc6520-1">
          <mxGeometry x="810" y="320" width="260" height="250" as="geometry" />
        </mxCell>
        <mxCell id="DGHIwi53QcnOYbEK0RTo-35" value="" style="verticalLabelPosition=bottom;shadow=0;dashed=0;align=center;html=1;verticalAlign=top;strokeWidth=1;shape=mxgraph.mockup.graphics.simpleIcon;strokeColor=#999999;" vertex="1" parent="7026571954dc6520-1">
          <mxGeometry x="70" y="710" width="260" height="250" as="geometry" />
        </mxCell>
        <mxCell id="DGHIwi53QcnOYbEK0RTo-34" value="" style="verticalLabelPosition=bottom;shadow=0;dashed=0;align=center;html=1;verticalAlign=top;strokeWidth=1;shape=mxgraph.mockup.graphics.simpleIcon;strokeColor=#999999;" vertex="1" parent="7026571954dc6520-1">
          <mxGeometry x="440" y="710" width="260" height="250" as="geometry" />
        </mxCell>
        <mxCell id="DGHIwi53QcnOYbEK0RTo-33" value="" style="verticalLabelPosition=bottom;shadow=0;dashed=0;align=center;html=1;verticalAlign=top;strokeWidth=1;shape=mxgraph.mockup.graphics.simpleIcon;strokeColor=#999999;" vertex="1" parent="7026571954dc6520-1">
          <mxGeometry x="810" y="710" width="260" height="250" as="geometry" />
        </mxCell>
        <mxCell id="DGHIwi53QcnOYbEK0RTo-32" value="" style="verticalLabelPosition=bottom;shadow=0;dashed=0;align=center;html=1;verticalAlign=top;strokeWidth=1;shape=mxgraph.mockup.graphics.simpleIcon;strokeColor=#999999;" vertex="1" parent="7026571954dc6520-1">
          <mxGeometry x="1180" y="320" width="260" height="250" as="geometry" />
        </mxCell>
        <mxCell id="DGHIwi53QcnOYbEK0RTo-31" value="" style="verticalLabelPosition=bottom;shadow=0;dashed=0;align=center;html=1;verticalAlign=top;strokeWidth=1;shape=mxgraph.mockup.graphics.simpleIcon;strokeColor=#999999;" vertex="1" parent="7026571954dc6520-1">
          <mxGeometry x="1180" y="710" width="260" height="250" as="geometry" />
        </mxCell>
        <mxCell id="DGHIwi53QcnOYbEK0RTo-30" value="" style="verticalLabelPosition=bottom;shadow=0;dashed=0;align=center;html=1;verticalAlign=top;strokeWidth=1;shape=mxgraph.mockup.graphics.simpleIcon;strokeColor=#999999;" vertex="1" parent="7026571954dc6520-1">
          <mxGeometry x="1550" y="320" width="260" height="250" as="geometry" />
        </mxCell>
        <mxCell id="DGHIwi53QcnOYbEK0RTo-29" value="" style="verticalLabelPosition=bottom;shadow=0;dashed=0;align=center;html=1;verticalAlign=top;strokeWidth=1;shape=mxgraph.mockup.graphics.simpleIcon;strokeColor=#999999;" vertex="1" parent="7026571954dc6520-1">
          <mxGeometry x="1550" y="700" width="260" height="250" as="geometry" />
        </mxCell>
        <mxCell id="DGHIwi53QcnOYbEK0RTo-70" value="&lt;font style=&quot;font-size: 16px;&quot;&gt;Pikachu&lt;/font&gt;" style="text;html=1;align=center;verticalAlign=middle;whiteSpace=wrap;rounded=0;fontFamily=Press Start 2P;fontSource=https%3A%2F%2Ffonts.googleapis.com%2Fcss%3Ffamily%3DPress%2BStart%2B2P;fontSize=16;fontColor=#3D348B;" vertex="1" parent="7026571954dc6520-1">
          <mxGeometry x="100" y="590" width="200" height="25" as="geometry" />
        </mxCell>
        <mxCell id="DGHIwi53QcnOYbEK0RTo-71" value="&lt;font style=&quot;font-size: 16px;&quot;&gt;Ditto&lt;/font&gt;" style="text;html=1;align=center;verticalAlign=middle;whiteSpace=wrap;rounded=0;fontFamily=Press Start 2P;fontSource=https%3A%2F%2Ffonts.googleapis.com%2Fcss%3Ffamily%3DPress%2BStart%2B2P;fontSize=16;fontColor=#FFFFFF;" vertex="1" parent="7026571954dc6520-1">
          <mxGeometry x="470" y="590" width="200" height="25" as="geometry" />
        </mxCell>
        <mxCell id="DGHIwi53QcnOYbEK0RTo-72" value="" style="shape=image;verticalLabelPosition=bottom;labelBackgroundColor=default;verticalAlign=top;aspect=fixed;imageAspect=0;image=https://wallpapers.com/images/hd/ultra-ball-pokemon-vector-art-v7y14n6rkgvy36jm.png;" vertex="1" parent="7026571954dc6520-1">
          <mxGeometry x="350" y="148.60000000000002" width="53" height="52.79" as="geometry" />
        </mxCell>
        <UserObject label="https://coolors.co/palette/3d348b-7678ed-f7b801-f18701-f35b04" link="https://coolors.co/palette/3d348b-7678ed-f7b801-f18701-f35b04" id="DGHIwi53QcnOYbEK0RTo-3">
          <mxCell style="text;whiteSpace=wrap;" vertex="1" parent="1">
            <mxGeometry width="370" height="40" as="geometry" />
          </mxCell>
        </UserObject>
      </root>
    </mxGraphModel>
  </diagram>
</mxfile>
